<svg width="24" height="24" viewBox="0 0 24 24" fill="none" xmlns="http://www.w3.org/2000/svg">
<g filter="url(#filter0_d_0_139)">
<path fill-rule="evenodd" clip-rule="evenodd" d="M12 0C16.4183 0 20 3.38274 20 7.55556V8.44446C20 12.6173 16.4183 16 12 16C7.58172 16 4 12.6173 4 8.44446V7.55556C4 3.38274 7.58172 0 12 0Z" fill="#EBEBEB"/>
<path fill-rule="evenodd" clip-rule="evenodd" d="M13.2148 3.87304C13.2148 4.0957 13.1426 4.29003 12.998 4.45605C12.8535 4.62207 12.6738 4.70507 12.459 4.70507C12.2597 4.70507 12.0879 4.62597 11.9433 4.46777C11.7988 4.30957 11.7265 4.1289 11.7265 3.92578C11.7265 3.71094 11.7988 3.52344 11.9433 3.36328C12.0879 3.20312 12.2598 3.12305 12.459 3.12305C12.6816 3.12305 12.8633 3.19825 13.0039 3.34864C13.1445 3.49903 13.2148 3.67384 13.2148 3.87305L13.2148 3.87304ZM12.7988 11.3613L12.7109 11.7363C12.3516 11.8808 12.0644 11.9814 11.8496 12.0381C11.6348 12.0947 11.4512 12.123 11.2988 12.123C10.9863 12.123 10.7519 12.042 10.5957 11.8799C10.4394 11.7178 10.3613 11.5176 10.3613 11.2793C10.3613 11.1894 10.3691 11.0957 10.3848 10.998C10.4004 10.9004 10.4258 10.7773 10.4609 10.6289L11.082 8.13867C11.1133 8.00195 11.1435 7.85547 11.1728 7.69922C11.2021 7.54297 11.2168 7.41016 11.2168 7.30078C11.2168 7.08203 11.1807 6.93652 11.1084 6.86426C11.0361 6.79199 10.8887 6.75586 10.666 6.75586C10.5801 6.75586 10.4658 6.76953 10.3232 6.79688C10.1807 6.82422 10.0723 6.84766 9.99805 6.86719L10.0859 6.49219C10.3906 6.35547 10.6641 6.25391 10.9062 6.1875C11.1484 6.12109 11.3398 6.08789 11.4805 6.08789C11.8008 6.08789 12.0332 6.16406 12.1777 6.31641C12.3223 6.46875 12.3945 6.67383 12.3945 6.93164C12.3945 7.00195 12.3867 7.09766 12.3711 7.21875C12.3555 7.33984 12.332 7.46094 12.3008 7.58203L11.6738 10.0723C11.6348 10.2246 11.6006 10.374 11.5713 10.5205C11.542 10.667 11.5273 10.7871 11.5273 10.8808C11.5273 11.1035 11.5771 11.2558 11.6768 11.3379C11.7764 11.4199 11.9375 11.4609 12.1602 11.4609C12.2344 11.4609 12.3408 11.4512 12.4795 11.4316C12.6182 11.4121 12.7246 11.3887 12.7988 11.3613H12.7988Z" fill="#B9B9BA"/>
</g>
<defs>
<filter id="filter0_d_0_139" x="0" y="0" width="24" height="24" filterUnits="userSpaceOnUse" color-interpolation-filters="sRGB">
<feFlood flood-opacity="0" result="BackgroundImageFix"/>
<feColorMatrix in="SourceAlpha" type="matrix" values="0 0 0 0 0 0 0 0 0 0 0 0 0 0 0 0 0 0 127 0" result="hardAlpha"/>
<feOffset dy="4"/>
<feGaussianBlur stdDeviation="2"/>
<feComposite in2="hardAlpha" operator="out"/>
<feColorMatrix type="matrix" values="0 0 0 0 0 0 0 0 0 0 0 0 0 0 0 0 0 0 0.25 0"/>
<feBlend mode="normal" in2="BackgroundImageFix" result="effect1_dropShadow_0_139"/>
<feBlend mode="normal" in="SourceGraphic" in2="effect1_dropShadow_0_139" result="shape"/>
</filter>
</defs>
</svg>
